<svg width="20" height="20" viewBox="0 0 20 20" fill="none" xmlns="http://www.w3.org/2000/svg">
<path d="M14.5112 12.4828C17.0918 12.4828 18.1487 15.1491 18.5754 17.0709C18.8058 18.1087 17.9664 19 16.9032 19H15.7526M13.2699 7.82759C15.1553 7.82759 16.3734 6.29918 16.3734 4.41379C16.3734 2.52841 15.1553 1 13.2699 1M2.13671 19H11.3684C12.0691 19 12.6206 18.4187 12.4809 17.732C12.0955 15.836 10.8363 12.4828 6.75256 12.4828C2.66881 12.4828 1.40972 15.836 1.0242 17.732C0.884557 18.4187 1.43595 19 2.13671 19ZM10.1664 4.41379C10.1664 6.29918 8.63796 7.82759 6.75257 7.82759C4.86719 7.82759 3.33878 6.29918 3.33878 4.41379C3.33878 2.52841 4.86719 1 6.75257 1C8.63796 1 10.1664 2.52841 10.1664 4.41379Z" stroke="#032CA6" stroke-width="2" stroke-linecap="round" stroke-linejoin="round"/>
</svg>
