<svg width="19" height="17" viewBox="0 0 19 17" fill="none" xmlns="http://www.w3.org/2000/svg">
<path d="M1 15.6553V3.34484C1 2.04932 2.07628 1 3.40346 1H5.00733C5.62989 1 6.22899 1.23566 6.67686 1.65773L7.76955 2.68711C8.21742 3.10918 8.81535 3.34484 9.43908 3.34484H15.6552C15.9662 3.34484 16.2644 3.46836 16.4843 3.68823C16.7041 3.90811 16.8277 4.20631 16.8277 4.51726V8.03452M1 15.6553H16.021L17.9462 9.55163C18.1806 8.80714 17.6202 8.05328 16.8277 8.03452M1 15.6553L3.14201 8.86225C3.29794 8.36983 3.76339 8.03452 4.29098 8.03452H16.8277" stroke="white" stroke-width="2" stroke-linecap="round" stroke-linejoin="round"/>
</svg>
