<svg width="16" height="16" viewBox="0 0 16 16" fill="none" xmlns="http://www.w3.org/2000/svg">
<path d="M8 0C6.41775 0 4.87103 0.469192 3.55544 1.34824C2.23985 2.22729 1.21447 3.47672 0.608967 4.93853C0.00346629 6.40034 -0.15496 8.00887 0.153721 9.56072C0.462403 11.1126 1.22433 12.538 2.34315 13.6569C3.46197 14.7757 4.88743 15.5376 6.43928 15.8463C7.99113 16.155 9.59966 15.9965 11.0615 15.391C12.5233 14.7855 13.7727 13.7602 14.6518 12.4446C15.5308 11.129 16 9.58225 16 8C16 5.87827 15.1571 3.84344 13.6569 2.34315C12.1566 0.842855 10.1217 0 8 0ZM12.5467 6.07L7.52667 11.7633C7.44566 11.8546 7.34742 11.929 7.23759 11.9822C7.12776 12.0354 7.0085 12.0663 6.88667 12.0733H6.82667C6.59929 12.0747 6.3795 11.9916 6.21 11.84L3.52334 9.45667C3.33857 9.29267 3.22651 9.062 3.21182 8.81539C3.19713 8.56878 3.28101 8.32643 3.445 8.14167C3.60899 7.9569 3.83967 7.84484 4.08628 7.83015C4.33289 7.81546 4.57523 7.89934 4.76 8.06333L6.76 9.82666L11.1633 4.82667C11.3269 4.64146 11.5573 4.5288 11.8039 4.51349C12.0505 4.49817 12.2931 4.58145 12.4783 4.745C12.6635 4.90855 12.7762 5.13898 12.7915 5.38559C12.8068 5.6322 12.7236 5.87479 12.56 6.06L12.5467 6.07Z" fill="white" fill-opacity="0.6"/>
</svg>
