<svg width="22" height="30" viewBox="0 0 22 30" fill="none" xmlns="http://www.w3.org/2000/svg">
<path d="M6.88856 11.7857H14.3886C14.6844 11.7857 14.9243 11.5459 14.9243 11.25V10.7143H13.8528C13.557 10.7143 13.3171 10.4744 13.3171 10.1786C13.3171 9.8827 13.557 9.64286 13.8528 9.64286H14.9243V2.14286H13.8528C13.557 2.14286 13.3171 1.90301 13.3171 1.60714C13.3171 1.31128 13.557 1.07143 13.8528 1.07143H14.9243V0.535714C14.9243 0.239847 14.6844 0 14.3886 0H6.88856C6.59269 0 6.35284 0.239847 6.35284 0.535714V1.07143H7.42427C7.72014 1.07143 7.95999 1.31128 7.95999 1.60714C7.95999 1.90301 7.72014 2.14286 7.42427 2.14286H6.35284V9.64286H7.42427C7.72014 9.64286 7.95999 9.8827 7.95999 10.1786C7.95999 10.4744 7.72014 10.7143 7.42427 10.7143H6.35284V11.25C6.35284 11.5459 6.59269 11.7857 6.88856 11.7857ZM7.42427 5.89286C7.42427 4.11766 8.86336 2.67857 10.6386 2.67857C12.4138 2.67857 13.8528 4.11766 13.8528 5.89286C13.8528 7.66806 12.4138 9.10714 10.6386 9.10714C8.86409 9.10537 7.42604 7.66732 7.42427 5.89286Z" fill="#032CA6"/>
<path d="M5.28133 15.5356H4.59186L0.0538253 28.6955C-0.0499371 28.9961 -0.00192487 29.3284 0.182702 29.5873C0.36733 29.8463 0.665782 30 0.983825 29.9999C1.40353 29.9998 1.77697 29.7335 1.91383 29.3367L5.48383 18.9792C5.35291 18.7454 5.28325 18.4822 5.28133 18.2142V15.5356Z" fill="#032CA6"/>
<path d="M10.6383 8.03571C11.8218 8.03571 12.7812 7.07632 12.7812 5.89286C12.7812 4.70939 11.8218 3.75 10.6383 3.75C9.45487 3.75 8.49548 4.70939 8.49548 5.89286C8.49548 7.07632 9.45487 8.03571 10.6383 8.03571Z" fill="#032CA6"/>
<path d="M17.6026 13.9285V6.96418C17.6026 6.66831 17.3627 6.42847 17.0669 6.42847H15.9954V11.2499C15.9954 12.1375 15.2759 12.857 14.3883 12.857H6.8883C6.0007 12.857 5.28115 12.1375 5.28115 11.2499V6.42847H4.20973C3.91386 6.42847 3.67401 6.66831 3.67401 6.96418V13.9285C3.67401 14.2243 3.91386 14.4642 4.20973 14.4642H17.0669C17.3627 14.4642 17.6026 14.2243 17.6026 13.9285Z" fill="#032CA6"/>
<path d="M9.56696 29.0165C9.56696 29.5597 10.0073 30.0001 10.5505 30.0001H10.7262C11.2695 30.0001 11.7098 29.5597 11.7098 29.0165V19.8215H9.56696V29.0165Z" fill="#032CA6"/>
<path d="M21.2232 28.6955L16.6851 15.5356H15.9957V18.2142C15.9937 18.4822 15.9241 18.7454 15.7932 18.9792L19.3632 29.3367C19.478 29.669 19.7614 29.9147 20.1065 29.9814C20.4517 30.0481 20.8062 29.9256 21.0365 29.66C21.2668 29.3944 21.338 29.0261 21.2232 28.6939V28.6955Z" fill="#032CA6"/>
<path d="M7.42427 15.5356H6.35284V18.2142C6.35284 18.5101 6.59269 18.7499 6.88856 18.7499H14.3886C14.6844 18.7499 14.9243 18.5101 14.9243 18.2142V15.5356H7.42427Z" fill="#032CA6"/>
</svg>
