<svg width="30" height="23" viewBox="0 0 30 23" fill="none" xmlns="http://www.w3.org/2000/svg">
<path d="M3.7184 4.95874L0.649793 6.33569C0.254973 6.5133 0 6.90698 0 7.34003C0 7.77238 0.254973 8.16675 0.649793 8.34436L2.93082 9.36792L2.94959 9.37684L8.18845 7.02486L3.7184 4.95874Z" fill="#032CA6"/>
<path d="M10.3032 8.0022L5.09546 10.3395L7.83814 11.5711L12.9317 9.21687L10.3032 8.0022Z" fill="#032CA6"/>
<path d="M15.0266 10.1853L9.96375 12.5252L14.5491 14.5835C14.6927 14.6478 14.8462 14.6801 15.0003 14.6801C15.1539 14.6801 15.3072 14.6478 15.4503 14.5835L20.0627 12.5128L15.0266 10.1853Z" fill="#032CA6"/>
<path d="M12.8787 4.91887L10.314 6.07037L5.84399 4.00426L8.34544 2.88159L12.8787 4.91887Z" fill="#032CA6"/>
<path d="M17.6215 7.04939L15.0275 8.24827L12.4288 7.04779L15.0234 5.88232H15.0239L17.6215 7.04939Z" fill="#032CA6"/>
<path d="M19.7459 8.00439L17.1222 9.21678L22.1887 11.5582L24.9238 10.3305L19.7459 8.00439Z" fill="#032CA6"/>
<path d="M19.5353 1.93022L15.0243 3.95582L10.4911 1.91831L14.5498 0.0966453C14.8364 -0.0322151 15.1644 -0.0322151 15.4509 0.0966453L19.5353 1.93022Z" fill="#032CA6"/>
<path d="M24.1838 4.01666L19.7353 6.07271L17.1691 4.9196L21.6819 2.89331L24.1838 4.01666Z" fill="#032CA6"/>
<path d="M29.9994 7.34012C29.9994 7.77247 29.7447 8.16684 29.3503 8.34376L27.0686 9.36801H27.0682L21.8597 7.02724L26.3087 4.97119L29.3496 6.33578C29.7447 6.5134 29.9994 6.90707 29.9994 7.34012Z" fill="#032CA6"/>
<path d="M29.3499 10.3921L29.0327 10.2497L15.4753 16.3352C15.3325 16.3995 15.1789 16.4318 15.0251 16.4318C14.8715 16.4318 14.7177 16.3995 14.5745 16.3352L0.992428 10.2383L0.649793 10.3921C0.255431 10.5697 0 10.9634 0 11.3964C0 11.8288 0.254973 12.2231 0.649793 12.4001L14.5497 18.6398C14.6928 18.7042 14.8464 18.7364 14.9997 18.7364C15.1533 18.7364 15.3073 18.7042 15.4504 18.6398L29.3503 12.4001C29.7447 12.2231 29.9997 11.8288 29.9997 11.3964C29.9997 10.9634 29.7449 10.5697 29.3499 10.3921Z" fill="#032CA6"/>
<path d="M29.3501 14.5075L28.997 14.3489L15.4754 20.4186C15.3325 20.4829 15.179 20.5152 15.0251 20.5152C14.8716 20.5152 14.7178 20.4829 14.5745 20.4186L1.02815 14.3376L0.649809 14.5077C0.255218 14.6849 0.000244141 15.079 0.000244141 15.5116C0.000244141 15.9444 0.255218 16.3383 0.650038 16.5157L14.5493 22.755C14.6926 22.8195 14.8464 22.8516 15.0002 22.8516C15.1538 22.8516 15.3074 22.8193 15.4504 22.7552L29.3504 16.5155C29.7449 16.3383 29.9999 15.9442 29.9999 15.5116C29.9999 15.079 29.7449 14.6849 29.3501 14.5075Z" fill="#032CA6"/>
</svg>
