<svg width="30" height="30" viewBox="0 0 30 30" fill="none" xmlns="http://www.w3.org/2000/svg">
<path d="M1.36328 0.0751953H28.6367C29.3481 0.075387 29.9246 0.651895 29.9248 1.36328V28.6367C29.9246 29.3481 29.3481 29.9246 28.6367 29.9248H25C24.2884 29.9248 23.7111 29.3482 23.7109 28.6367C23.7109 27.9251 24.2883 27.3477 25 27.3477H27.3477V21.7432H17.7275C17.016 21.7432 16.4387 21.1665 16.4385 20.4551C16.4385 19.7434 17.0159 19.166 17.7275 19.166H27.3477V2.65234H19.0156V8.25684H24.0908C24.8025 8.25684 25.3799 8.83424 25.3799 9.5459C25.3798 10.2575 24.8024 10.834 24.0908 10.834H17.7275C17.0159 10.834 16.4386 10.2575 16.4385 9.5459V2.65234H2.65234V12.8027H9.16602V7.72754C9.16602 7.01603 9.74264 6.43872 10.4541 6.43848C11.1658 6.43848 11.7432 7.01588 11.7432 7.72754V20.4541C11.7432 21.1658 11.1658 21.7432 10.4541 21.7432C9.74264 21.7429 9.16602 21.1656 9.16602 20.4541V15.3799H2.65234V27.3477H16.8184C17.5299 27.3478 18.1064 27.9251 18.1064 28.6367C18.1063 29.3482 17.5298 29.9247 16.8184 29.9248H1.36328C0.651887 29.9246 0.0753777 29.3481 0.0751953 28.6367V1.36328C0.0753783 0.651896 0.651887 0.0753872 1.36328 0.0751953Z" fill="#032CA6" stroke="#032CA6" stroke-width="0.15"/>
</svg>
