<svg width="31" height="31" viewBox="0 0 31 31" fill="none" xmlns="http://www.w3.org/2000/svg">
<path d="M14.5055 9.44971C15.0323 9.44971 15.4596 9.877 15.4596 10.4038C15.4596 10.9306 15.0323 11.3579 14.5055 11.3579H4.54456C4.01774 11.3579 3.59045 10.9306 3.59045 10.4038C3.59045 9.877 4.01774 9.44971 4.54456 9.44971H14.5055Z" fill="#032CA6" stroke="#032CA6" stroke-width="0.15"/>
<path d="M12.1617 12.9653C12.6886 12.9653 13.1158 13.3926 13.1158 13.9194C13.1158 14.4462 12.6886 14.8735 12.1617 14.8735H4.54456C4.01774 14.8735 3.59045 14.4462 3.59045 13.9194C3.59045 13.3926 4.01774 12.9653 4.54456 12.9653H12.1617Z" fill="#032CA6" stroke="#032CA6" stroke-width="0.15"/>
<path d="M12.1617 16.481C12.6886 16.481 13.1158 16.9082 13.1158 17.4351C13.1158 17.9619 12.6886 18.3892 12.1617 18.3892H4.54456C4.01774 18.3892 3.59045 17.9619 3.59045 17.4351C3.59045 16.9082 4.01774 16.481 4.54456 16.481H12.1617Z" fill="#032CA6" stroke="#032CA6" stroke-width="0.15"/>
<path d="M12.1617 19.9966C12.6886 19.9966 13.1158 20.4239 13.1158 20.9507C13.1158 21.4775 12.6886 21.9048 12.1617 21.9048H4.54456C4.01774 21.9048 3.59045 21.4775 3.59045 20.9507C3.59045 20.4239 4.01774 19.9966 4.54456 19.9966H12.1617Z" fill="#032CA6" stroke="#032CA6" stroke-width="0.15"/>
<path d="M16.2633 0.074707C16.5162 0.074707 16.7593 0.175186 16.9381 0.354004L22.7975 6.21338C22.9764 6.39227 23.0768 6.63521 23.0768 6.88818V11.146C23.7754 11.4532 24.4186 11.8902 24.9742 12.4458C27.1726 14.6445 27.3783 18.0904 25.5953 20.5249L29.9459 24.8755C30.3182 25.2479 30.3182 25.8517 29.9459 26.2241C29.7597 26.4104 29.515 26.5034 29.2711 26.5034C29.0271 26.5034 28.7826 26.4104 28.5963 26.2241L24.2457 21.8735C23.8794 22.1427 23.4885 22.3702 23.0768 22.5513V26.9272C23.0768 28.7456 21.5973 30.2251 19.7789 30.2251H3.37268C1.55429 30.2251 0.0748322 28.7456 0.0748291 26.9272V3.37256C0.0748291 1.55417 1.55429 0.074707 3.37268 0.074707H16.2633ZM3.37268 1.98291C2.60639 1.98291 1.98303 2.60627 1.98303 3.37256V26.9272C1.98304 27.6935 2.60639 28.3169 3.37268 28.3169H19.7789C20.5452 28.3169 21.1686 27.6935 21.1686 26.9272V23.0454C20.9709 23.0642 20.7711 23.0767 20.5699 23.0767C18.9069 23.0765 17.3426 22.4284 16.1666 21.2524C14.9907 20.0764 14.3434 18.5123 14.3434 16.8491C14.3434 15.186 14.9907 13.6219 16.1666 12.4458C17.3426 11.2698 18.9069 10.6217 20.5699 10.6216C20.7711 10.6216 20.971 10.6331 21.1686 10.6519V7.84229H16.2633C15.7365 7.84229 15.3092 7.41499 15.3092 6.88818V1.98291H3.37268ZM20.5699 12.5298C19.4163 12.5299 18.332 12.9787 17.5162 13.7944C16.7003 14.6104 16.2506 15.6952 16.2506 16.8491C16.2506 18.003 16.7003 19.0878 17.5162 19.9038C18.332 20.7195 19.4163 21.1683 20.5699 21.1685C20.9958 21.1685 21.4124 21.1069 21.8092 20.9888C21.8295 20.9817 21.8506 20.975 21.8717 20.9692C22.5258 20.7635 23.1256 20.4028 23.6246 19.9038C25.3087 18.2197 25.3087 15.4787 23.6246 13.7944C23.1253 13.2952 22.5253 12.9337 21.8707 12.728C21.8499 12.7224 21.8293 12.7165 21.8092 12.7095L21.5084 12.6313C21.2039 12.5641 20.8894 12.5298 20.5699 12.5298ZM17.2174 5.93408H19.8199L17.2174 3.33154V5.93408Z" fill="#032CA6" stroke="#032CA6" stroke-width="0.15"/>
</svg>
