<svg width="12" height="12" viewBox="0 0 12 12" fill="none" xmlns="http://www.w3.org/2000/svg">
<path d="M11.0041 12.0001C10.7389 12.0001 10.4845 11.8947 10.297 11.7072C10.1094 11.5196 10.0041 11.2653 10.0041 11.0001V3.41006L1.71409 11.7101C1.52579 11.8984 1.27039 12.0042 1.00409 12.0042C0.73779 12.0042 0.482395 11.8984 0.294092 11.7101C0.105788 11.5218 1.9841e-09 11.2664 0 11.0001C-1.9841e-09 10.7338 0.105788 10.4784 0.294092 10.2901L8.59409 2.00006H1.00409C0.738875 2.00006 0.484522 1.8947 0.296985 1.70717C0.109449 1.51963 0.00409174 1.26528 0.00409174 1.00006C0.00409174 0.734842 0.109449 0.480488 0.296985 0.292952C0.484522 0.105415 0.738875 5.91278e-05 1.00409 5.91278e-05H11.0041C11.1348 0.00163937 11.2639 0.0288181 11.3841 0.0800591C11.6284 0.181534 11.8226 0.37571 11.9241 0.62006C11.9753 0.740282 12.0025 0.869382 12.0041 1.00006V11.0001C12.0041 11.2653 11.8987 11.5196 11.7112 11.7072C11.5237 11.8947 11.2693 12.0001 11.0041 12.0001Z" fill="white"/>
</svg>
