<svg width="12" height="12" viewBox="0 0 12 12" fill="none" xmlns="http://www.w3.org/2000/svg">
<path d="M11.9258 11.3858C11.8243 11.6301 11.6301 11.8243 11.3858 11.9258C11.2656 11.977 11.1365 12.0042 11.0058 12.0058H1.0058C0.740582 12.0058 0.486228 11.9004 0.298692 11.7129C0.111155 11.5254 0.00579834 11.271 0.00579834 11.0058C0.00579834 10.7406 0.111155 10.4862 0.298692 10.2987C0.486228 10.1112 0.740582 10.0058 1.0058 10.0058H8.5958L0.295798 1.7158C0.20207 1.62283 0.127676 1.51223 0.0769072 1.39038C0.0261385 1.26852 0 1.13781 0 1.0058C0 0.873787 0.0261385 0.743081 0.0769072 0.621222C0.127676 0.499362 0.20207 0.388762 0.295798 0.295799C0.388761 0.202071 0.499362 0.127675 0.621222 0.0769062C0.743081 0.0261374 0.873786 0 1.0058 0C1.13781 0 1.26852 0.0261374 1.39038 0.0769062C1.51223 0.127675 1.62284 0.202071 1.7158 0.295799L10.0058 8.5958V1.0058C10.0058 0.740582 10.1112 0.486227 10.2987 0.298691C10.4862 0.111155 10.7406 0.00579834 11.0058 0.00579834C11.271 0.00579834 11.5254 0.111155 11.7129 0.298691C11.9004 0.486227 12.0058 0.740582 12.0058 1.0058V11.0058C12.0042 11.1365 11.977 11.2656 11.9258 11.3858Z" fill="white"/>
</svg>
