<svg width="20" height="20" viewBox="0 0 20 20" fill="none" xmlns="http://www.w3.org/2000/svg">
<path d="M10.89 16.0467C10.6407 15.9566 10.3658 15.9693 10.1258 16.0818C9.88581 16.1943 9.70028 16.3975 9.61002 16.6467L8.88002 18.6467C8.78996 18.896 8.80257 19.1709 8.91507 19.4109C9.02758 19.6509 9.23078 19.8365 9.48002 19.9267C9.58902 19.9663 9.70407 19.9866 9.82002 19.9867C10.0255 19.9866 10.226 19.9232 10.3942 19.8051C10.5624 19.687 10.6901 19.52 10.76 19.3267L11.49 17.3267C11.5801 17.0774 11.5675 16.8025 11.455 16.5625C11.3425 16.3225 11.1393 16.137 10.89 16.0467ZM6.89002 16.0467C6.64071 15.9566 6.36584 15.9693 6.12583 16.0818C5.88581 16.1943 5.70028 16.3975 5.61002 16.6467L4.88002 18.6467C4.78996 18.896 4.80257 19.1709 4.91507 19.4109C5.02758 19.6509 5.23078 19.8365 5.48002 19.9267C5.58902 19.9663 5.70407 19.9866 5.82002 19.9867C6.02553 19.9866 6.22603 19.9232 6.39423 19.8051C6.56242 19.687 6.69015 19.52 6.76002 19.3267L7.49002 17.3267C7.58008 17.0774 7.56747 16.8025 7.45497 16.5625C7.34246 16.3225 7.13926 16.137 6.89002 16.0467ZM6.89002 9.04671C6.64071 8.95665 6.36584 8.96926 6.12583 9.08177C5.88581 9.19427 5.70028 9.39747 5.61002 9.64671L4.51002 12.6467C4.45544 12.7977 4.438 12.9596 4.4592 13.1187C4.48039 13.2779 4.53959 13.4296 4.63179 13.561C4.72398 13.6924 4.84647 13.7997 4.98889 13.8738C5.13131 13.9479 5.28948 13.9866 5.45002 13.9867C5.65553 13.9866 5.85603 13.9232 6.02423 13.8051C6.19242 13.687 6.32015 13.52 6.39002 13.3267L7.49002 10.3267C7.58008 10.0774 7.56747 9.80254 7.45497 9.56252C7.34246 9.3225 7.13926 9.13697 6.89002 9.04671ZM10.89 9.04671C10.6407 8.95665 10.3658 8.96926 10.1258 9.08177C9.88581 9.19427 9.70028 9.39747 9.61002 9.64671L8.51002 12.6467C8.45544 12.7977 8.438 12.9596 8.4592 13.1187C8.48039 13.2779 8.53959 13.4296 8.63179 13.561C8.72399 13.6924 8.84647 13.7997 8.98889 13.8738C9.13131 13.9479 9.28948 13.9866 9.45002 13.9867C9.65553 13.9866 9.85603 13.9232 10.0242 13.8051C10.1924 13.687 10.3201 13.52 10.39 13.3267L11.49 10.3267C11.5801 10.0774 11.5675 9.80254 11.455 9.56252C11.3425 9.3225 11.1393 9.13697 10.89 9.04671ZM16.42 4.20671C15.809 2.80272 14.7545 1.63779 13.4181 0.890438C12.0817 0.143088 10.5371 -0.145456 9.02099 0.0690207C7.50489 0.283498 6.10095 0.989164 5.02427 2.07789C3.9476 3.16661 3.25761 4.57833 3.06002 6.09671C2.18743 6.30768 1.41118 6.80604 0.856149 7.51162C0.301114 8.21721 -0.000433116 9.08899 1.98754e-05 9.98671C-0.00176561 10.5531 0.116767 11.1135 0.347772 11.6306C0.578778 12.1478 0.916988 12.61 1.34002 12.9867C1.43738 13.0802 1.55266 13.1531 1.67892 13.2008C1.80518 13.2486 1.9398 13.2703 2.07467 13.2646C2.20955 13.259 2.34188 13.2261 2.46369 13.1679C2.5855 13.1097 2.69428 13.0275 2.78346 12.9261C2.87264 12.8248 2.94037 12.7064 2.98259 12.5782C3.0248 12.45 3.04062 12.3146 3.02909 12.1801C3.01755 12.0456 2.97891 11.9148 2.91548 11.7956C2.85205 11.6765 2.76515 11.5714 2.66002 11.4867C2.45032 11.2975 2.28309 11.066 2.16933 10.8074C2.05557 10.5489 1.99787 10.2692 2.00002 9.98671C2.00002 9.45628 2.21073 8.94757 2.58581 8.5725C2.96088 8.19743 3.46959 7.98671 4.00002 7.98671C4.26524 7.98671 4.51959 7.88135 4.70713 7.69382C4.89466 7.50628 5.00002 7.25193 5.00002 6.98671C5.00257 5.80399 5.42431 4.66046 6.19029 3.75929C6.95627 2.85812 8.01691 2.25766 9.18377 2.06458C10.3506 1.87151 11.5482 2.09832 12.5636 2.70472C13.579 3.31112 14.3466 4.25785 14.73 5.37671C14.7872 5.54855 14.8899 5.70164 15.0273 5.81964C15.1647 5.93765 15.3315 6.01613 15.51 6.04671C16.2042 6.16645 16.8341 6.52664 17.2893 7.06418C17.7446 7.60171 17.9962 8.2823 18 8.98671C18.0153 9.723 17.7509 10.4377 17.26 10.9867C17.1004 11.1855 17.0227 11.4378 17.0429 11.692C17.063 11.9462 17.1795 12.183 17.3686 12.3542C17.5576 12.5253 17.8048 12.6178 18.0597 12.6127C18.3147 12.6076 18.558 12.5053 18.74 12.3267C19.2908 11.6973 19.6749 10.9397 19.8572 10.1234C20.0394 9.30707 20.0139 8.45808 19.7831 7.65415C19.5523 6.85022 19.1234 6.11704 18.5359 5.52174C17.9483 4.92645 17.2209 4.48806 16.42 4.24671V4.20671ZM14.89 16.0467C14.6407 15.9566 14.3658 15.9693 14.1258 16.0818C13.8858 16.1943 13.7003 16.3975 13.61 16.6467L12.88 18.6467C12.79 18.896 12.8026 19.1709 12.9151 19.4109C13.0276 19.6509 13.2308 19.8365 13.48 19.9267C13.589 19.9663 13.7041 19.9866 13.82 19.9867C14.0255 19.9866 14.226 19.9232 14.3942 19.8051C14.5624 19.687 14.6901 19.52 14.76 19.3267L15.49 17.3267C15.5801 17.0774 15.5675 16.8025 15.455 16.5625C15.3425 16.3225 15.1393 16.137 14.89 16.0467ZM14.89 9.04671C14.6407 8.95665 14.3658 8.96926 14.1258 9.08177C13.8858 9.19427 13.7003 9.39747 13.61 9.64671L12.51 12.6467C12.4554 12.7977 12.438 12.9596 12.4592 13.1187C12.4804 13.2779 12.5396 13.4296 12.6318 13.561C12.724 13.6924 12.8465 13.7997 12.9889 13.8738C13.1313 13.9479 13.2895 13.9866 13.45 13.9867C13.6555 13.9866 13.856 13.9232 14.0242 13.8051C14.1924 13.687 14.3201 13.52 14.39 13.3267L15.49 10.3267C15.5801 10.0774 15.5675 9.80254 15.455 9.56252C15.3425 9.3225 15.1393 9.13697 14.89 9.04671Z" fill="white"/>
</svg>
