<svg width="75" height="88" viewBox="0 0 75 88" fill="none" xmlns="http://www.w3.org/2000/svg">
<path d="M73.162 68.156L50.678 29.612V8.8H55.078C56.2449 8.8 57.3641 8.33643 58.1893 7.51127C59.0144 6.68611 59.478 5.56695 59.478 4.4C59.478 3.23305 59.0144 2.11389 58.1893 1.28873C57.3641 0.46357 56.2449 0 55.078 0H19.878C18.711 0 17.5919 0.46357 16.7667 1.28873C15.9416 2.11389 15.478 3.23305 15.478 4.4C15.478 5.56695 15.9416 6.68611 16.7667 7.51127C17.5919 8.33643 18.711 8.8 19.878 8.8H24.278V29.612L1.79398 68.156C0.625974 70.1612 0.00720974 72.4388 6.2625e-05 74.7593C-0.00708449 77.0799 0.597638 79.3613 1.75327 81.3736C2.90891 83.3859 4.57462 85.0581 6.58249 86.2214C8.59036 87.3848 10.8694 87.9982 13.19 88H61.59C63.9105 87.9982 66.1896 87.3848 68.1975 86.2214C70.2053 85.0581 71.8711 83.3859 73.0267 81.3736C74.1823 79.3613 74.787 77.0799 74.7799 74.7593C74.7728 72.4388 74.154 70.1612 72.986 68.156H73.162ZM32.462 32.956C32.8501 32.3026 33.0623 31.5598 33.078 30.8V8.8H41.878V30.8C41.886 31.5748 42.0985 32.3337 42.494 33L46.278 39.6H28.678L32.462 32.956ZM65.55 76.956C65.1661 77.621 64.6148 78.174 63.951 78.5599C63.2871 78.9459 62.5338 79.1514 61.766 79.156H13.366C12.5981 79.1514 11.8448 78.9459 11.181 78.5599C10.5172 78.174 9.96591 77.621 9.58198 76.956C9.1958 76.2871 8.9925 75.5284 8.9925 74.756C8.9925 73.9836 9.1958 73.2249 9.58198 72.556L23.53 48.4H51.47L65.55 72.6C65.9362 73.2689 66.1395 74.0276 66.1395 74.8C66.1395 75.5724 65.9362 76.3311 65.55 77V76.956ZM28.678 57.2C27.8077 57.2 26.9571 57.4581 26.2335 57.9415C25.5099 58.425 24.9459 59.1122 24.6129 59.9162C24.2799 60.7202 24.1928 61.6049 24.3625 62.4584C24.5323 63.3119 24.9514 64.0959 25.5667 64.7113C26.1821 65.3266 26.9661 65.7457 27.8196 65.9155C28.6731 66.0852 29.5578 65.9981 30.3618 65.6651C31.1658 65.332 31.853 64.7681 32.3364 64.0445C32.8199 63.3209 33.078 62.4702 33.078 61.6C33.078 60.433 32.6144 59.3139 31.7893 58.4887C30.9641 57.6636 29.8449 57.2 28.678 57.2ZM46.278 61.6C45.4077 61.6 44.557 61.8581 43.8335 62.3415C43.1099 62.825 42.5459 63.5122 42.2129 64.3162C41.8799 65.1202 41.7928 66.0049 41.9625 66.8584C42.1323 67.7119 42.5514 68.4959 43.1667 69.1113C43.7821 69.7266 44.5661 70.1457 45.4196 70.3155C46.2731 70.4852 47.1578 70.3981 47.9618 70.0651C48.7658 69.732 49.453 69.1681 49.9364 68.4445C50.4199 67.7209 50.678 66.8702 50.678 66C50.678 64.833 50.2144 63.7139 49.3893 62.8887C48.5641 62.0636 47.4449 61.6 46.278 61.6Z" fill="#032CA6" fill-opacity="0.1"/>
</svg>
