<svg width="21" height="13" viewBox="0 0 21 13" fill="none" xmlns="http://www.w3.org/2000/svg">
<path d="M0.76 2.06319C0.955555 2.12061 1.14355 2.20118 1.32 2.30319C1.93982 2.67312 2.64818 2.86844 3.37 2.86844C4.09182 2.86844 4.80018 2.67312 5.42 2.30319C5.81046 2.08234 6.25141 1.96628 6.7 1.96628C7.14859 1.96628 7.58954 2.08234 7.98 2.30319C8.6073 2.66188 9.31739 2.85056 10.04 2.85056C10.7626 2.85056 11.4727 2.66188 12.1 2.30319C12.4905 2.08234 12.9314 1.96628 13.38 1.96628C13.8286 1.96628 14.2695 2.08234 14.66 2.30319C15.2937 2.66538 16.0101 2.85824 16.74 2.86319C17.4452 2.86173 18.1366 2.66813 18.74 2.30319C18.9164 2.20118 19.1044 2.12061 19.3 2.06319C19.5546 1.98893 19.7693 1.81656 19.8968 1.58402C20.0243 1.35147 20.0543 1.07779 19.98 0.823186C19.9057 0.568579 19.7334 0.353899 19.5008 0.226374C19.2683 0.0988494 18.9946 0.068926 18.74 0.143187C18.3894 0.251385 18.0535 0.402532 17.74 0.593186C17.4214 0.77948 17.059 0.877665 16.69 0.877665C16.321 0.877665 15.9586 0.77948 15.64 0.593186C14.9466 0.204259 14.165 0 13.37 0C12.575 0 11.7934 0.204259 11.1 0.593186C10.7781 0.78024 10.4123 0.878769 10.04 0.878769C9.66766 0.878769 9.30195 0.78024 8.98 0.593186C8.28664 0.204259 7.50499 0 6.71 0C5.91501 0 5.13336 0.204259 4.44 0.593186C4.12143 0.77948 3.75904 0.877665 3.39 0.877665C3.02096 0.877665 2.65857 0.77948 2.34 0.593186C2.02649 0.402532 1.69061 0.251385 1.34 0.143187C1.08539 0.068926 0.811713 0.0988494 0.579167 0.226374C0.346622 0.353899 0.174261 0.568579 0.1 0.823186C0.0257394 1.07779 0.0556629 1.35147 0.183188 1.58402C0.310712 1.81656 0.525392 1.98893 0.78 2.06319H0.76ZM18.76 10.1432C18.4094 10.2514 18.0735 10.4025 17.76 10.5932C17.4414 10.7795 17.079 10.8777 16.71 10.8777C16.341 10.8777 15.9786 10.7795 15.66 10.5932C14.9666 10.2043 14.185 10 13.39 10C12.595 10 11.8134 10.2043 11.12 10.5932C10.7981 10.7802 10.4323 10.8788 10.06 10.8788C9.68766 10.8788 9.32195 10.7802 9 10.5932C8.30664 10.2043 7.52499 10 6.73 10C5.93501 10 5.15336 10.2043 4.46 10.5932C4.14143 10.7795 3.77904 10.8777 3.41 10.8777C3.04096 10.8777 2.67857 10.7795 2.36 10.5932C2.04649 10.4025 1.71061 10.2514 1.36 10.1432C1.23393 10.1064 1.10185 10.0948 0.97131 10.1091C0.840766 10.1234 0.714312 10.1632 0.599167 10.2264C0.484023 10.2895 0.382443 10.3747 0.300227 10.4771C0.218011 10.5795 0.15677 10.6971 0.12 10.8232C0.0832299 10.9493 0.0716509 11.0813 0.0859243 11.2119C0.100198 11.3424 0.140044 11.4689 0.203188 11.584C0.266331 11.6992 0.351536 11.8007 0.453938 11.883C0.556339 11.9652 0.673931 12.0264 0.8 12.0632C0.995555 12.1206 1.18355 12.2012 1.36 12.3032C1.97982 12.6731 2.68818 12.8684 3.41 12.8684C4.13182 12.8684 4.84018 12.6731 5.46 12.3032C5.85046 12.0823 6.29141 11.9663 6.74 11.9663C7.18859 11.9663 7.62954 12.0823 8.02 12.3032C8.6473 12.6619 9.35739 12.8506 10.08 12.8506C10.8026 12.8506 11.5127 12.6619 12.14 12.3032C12.5305 12.0823 12.9714 11.9663 13.42 11.9663C13.8686 11.9663 14.3095 12.0823 14.7 12.3032C15.3337 12.6654 16.0501 12.8582 16.78 12.8632C17.4852 12.8617 18.1766 12.6681 18.78 12.3032C18.9564 12.2012 19.1444 12.1206 19.34 12.0632C19.5946 11.9889 19.8093 11.8166 19.9368 11.584C20.0643 11.3515 20.0943 11.0778 20.02 10.8232C19.9457 10.5686 19.7734 10.3539 19.5408 10.2264C19.3083 10.0988 19.0346 10.0689 18.78 10.1432H18.76ZM18.76 5.14319C18.4094 5.25138 18.0735 5.40253 17.76 5.59319C17.4414 5.77948 17.079 5.87766 16.71 5.87766C16.341 5.87766 15.9786 5.77948 15.66 5.59319C14.9666 5.20426 14.185 5 13.39 5C12.595 5 11.8134 5.20426 11.12 5.59319C10.7981 5.78024 10.4323 5.87877 10.06 5.87877C9.68766 5.87877 9.32195 5.78024 9 5.59319C8.30664 5.20426 7.52499 5 6.73 5C5.93501 5 5.15336 5.20426 4.46 5.59319C4.14143 5.77948 3.77904 5.87766 3.41 5.87766C3.04096 5.87766 2.67857 5.77948 2.36 5.59319C2.04649 5.40253 1.71061 5.25138 1.36 5.14319C1.22906 5.09375 1.08921 5.07235 0.949477 5.08038C0.809749 5.0884 0.67326 5.12566 0.54884 5.18976C0.42442 5.25385 0.314841 5.34335 0.227189 5.45246C0.139537 5.56158 0.075766 5.68787 0.0400001 5.82319C0.00322995 5.94926 -0.00834901 6.08133 0.00592434 6.21188C0.0201977 6.34242 0.0600438 6.46887 0.123188 6.58402C0.186331 6.69916 0.271536 6.80074 0.373938 6.88296C0.476339 6.96518 0.593931 7.02642 0.72 7.06319C0.915555 7.12061 1.10355 7.20118 1.28 7.30319C1.89982 7.67312 2.60818 7.86844 3.33 7.86844C4.05182 7.86844 4.76018 7.67312 5.38 7.30319C5.77046 7.08234 6.21141 6.96628 6.66 6.96628C7.10859 6.96628 7.54954 7.08234 7.94 7.30319C8.5673 7.66188 9.27739 7.85056 10 7.85056C10.7226 7.85056 11.4327 7.66188 12.06 7.30319C12.4505 7.08234 12.8914 6.96628 13.34 6.96628C13.7886 6.96628 14.2295 7.08234 14.62 7.30319C15.2537 7.66538 15.9701 7.85824 16.7 7.86319C17.4052 7.86173 18.0966 7.66813 18.7 7.30319C18.8764 7.20118 19.0644 7.12061 19.26 7.06319C19.5146 6.98893 19.7293 6.81656 19.8568 6.58402C19.9843 6.35147 20.0143 6.07779 19.94 5.82319C19.8657 5.56858 19.6934 5.3539 19.4608 5.22637C19.2283 5.09885 18.9546 5.06893 18.7 5.14319H18.76Z" fill="white"/>
</svg>
