<svg width="19" height="20" viewBox="0 0 19 20" fill="none" xmlns="http://www.w3.org/2000/svg">
<path d="M14 2.91352C13.1195 2.91282 12.2554 3.15132 11.5 3.60352C10.9523 2.34631 9.99039 1.31466 8.77454 0.680378C7.55869 0.0460912 6.16226 -0.152558 4.81776 0.11751C3.47327 0.387578 2.26186 1.11006 1.38526 2.16466C0.508656 3.21926 0.019767 4.54232 0 5.91352V9.91352C0.00143584 11.3304 0.504246 12.7011 1.41939 13.7827C2.33452 14.8644 3.60294 15.5874 5 15.8235V18.9135C5 19.1787 5.10536 19.4331 5.29289 19.6206C5.48043 19.8082 5.73478 19.9135 6 19.9135C6.26522 19.9135 6.51957 19.8082 6.70711 19.6206C6.89464 19.4331 7 19.1787 7 18.9135V15.8235C8.01873 15.6467 8.97554 15.2131 9.78 14.5635C10.137 15.1365 10.6064 15.6313 11.1598 16.018C11.7132 16.4047 12.3392 16.6753 13 16.8135V18.9135C13 19.1787 13.1054 19.4331 13.2929 19.6206C13.4804 19.8082 13.7348 19.9135 14 19.9135C14.2652 19.9135 14.5196 19.8082 14.7071 19.6206C14.8946 19.4331 15 19.1787 15 18.9135V16.8135C16.1294 16.583 17.1444 15.9693 17.8733 15.0764C18.6022 14.1835 19.0002 13.0662 19 11.9135V7.91352C19 6.58744 18.4732 5.31567 17.5355 4.37799C16.5979 3.44031 15.3261 2.91352 14 2.91352ZM9 7.91352V11.9135C9.00957 12.1045 9.0296 12.2948 9.06 12.4835C8.52519 13.1205 7.80512 13.5749 7 13.7835V10.9135C7 10.6483 6.89464 10.394 6.70711 10.2064C6.51957 10.0189 6.26522 9.91352 6 9.91352C5.73478 9.91352 5.48043 10.0189 5.29289 10.2064C5.10536 10.394 5 10.6483 5 10.9135V13.7735C4.14353 13.5524 3.38451 13.0536 2.84169 12.3552C2.29887 11.6567 2.00287 10.7981 2 9.91352V5.91352C1.99739 5.12109 2.23022 4.34574 2.66894 3.68582C3.10766 3.02591 3.7325 2.51118 4.4642 2.20693C5.19591 1.90268 6.0015 1.82262 6.77877 1.9769C7.55604 2.13119 8.26998 2.51287 8.83 3.07352C9.37135 3.62216 9.7399 4.31753 9.89 5.07352C9.31193 5.9079 9.00151 6.89846 9 7.91352ZM17 11.9135C16.9983 12.5325 16.8051 13.1357 16.4471 13.6406C16.089 14.1455 15.5835 14.5272 15 14.7335V10.9135C15 10.6483 14.8946 10.394 14.7071 10.2064C14.5196 10.0189 14.2652 9.91352 14 9.91352C13.7348 9.91352 13.4804 10.0189 13.2929 10.2064C13.1054 10.394 13 10.6483 13 10.9135V14.7335C12.4165 14.5272 11.911 14.1455 11.5529 13.6406C11.1949 13.1357 11.0017 12.5325 11 11.9135V7.91352C11 7.11787 11.3161 6.35481 11.8787 5.7922C12.4413 5.22959 13.2044 4.91352 14 4.91352C14.7956 4.91352 15.5587 5.22959 16.1213 5.7922C16.6839 6.35481 17 7.11787 17 7.91352V11.9135Z" fill="white"/>
</svg>
