<svg width="16" height="22" viewBox="0 0 16 22" fill="none" xmlns="http://www.w3.org/2000/svg">
<path d="M13.0899 1.82129C12.1702 1.06487 11.0933 0.523318 9.9376 0.236133C8.78194 -0.051052 7.57674 -0.076622 6.40994 0.161289C4.85632 0.475111 3.43093 1.24336 2.31462 2.36857C1.19832 3.49378 0.441414 4.92522 0.139942 6.48129C-0.0802115 7.64801 -0.0402063 8.84894 0.257104 9.99842C0.554414 11.1479 1.1017 12.2176 1.85994 13.1313C2.56363 13.9254 2.96698 14.9408 2.99994 16.0013V19.0013C2.99994 19.7969 3.31601 20.56 3.87862 21.1226C4.44123 21.6852 5.20429 22.0013 5.99994 22.0013H9.99994C10.7956 22.0013 11.5587 21.6852 12.1213 21.1226C12.6839 20.56 12.9999 19.7969 12.9999 19.0013V16.1913C13.0335 15.0205 13.4637 13.8957 14.2199 13.0013C15.5451 11.3621 16.1697 9.26611 15.9581 7.16892C15.7465 5.07172 14.7158 3.14278 13.0899 1.80129V1.82129ZM10.9999 19.0013C10.9999 19.2665 10.8946 19.5209 10.707 19.7084C10.5195 19.8959 10.2652 20.0013 9.99994 20.0013H5.99994C5.73473 20.0013 5.48037 19.8959 5.29284 19.7084C5.1053 19.5209 4.99994 19.2665 4.99994 19.0013V18.0013H10.9999V19.0013ZM12.6699 11.7613C11.6644 12.9539 11.0778 14.4433 10.9999 16.0013H8.99994V13.0013C8.99994 12.7361 8.89458 12.4817 8.70705 12.2942C8.51951 12.1066 8.26516 12.0013 7.99994 12.0013C7.73473 12.0013 7.48037 12.1066 7.29284 12.2942C7.1053 12.4817 6.99994 12.7361 6.99994 13.0013V16.0013H4.99994C4.97356 14.4694 4.40689 12.996 3.39994 11.8413C2.73558 11.0453 2.28883 10.0907 2.10325 9.07064C1.91767 8.05056 1.99959 6.9998 2.34103 6.02082C2.68247 5.04183 3.27176 4.16803 4.05146 3.48461C4.83116 2.8012 5.77465 2.33149 6.78994 2.12129C7.66249 1.94163 8.5641 1.95853 9.42931 2.17076C10.2945 2.38299 11.1016 2.78521 11.792 3.34824C12.4824 3.91127 13.0387 4.62097 13.4206 5.42581C13.8025 6.23065 14.0004 7.11043 13.9999 8.00129C14.0073 9.37115 13.537 10.7008 12.6699 11.7613Z" fill="#0F1C42"/>
</svg>
