<svg width="20" height="20" viewBox="0 0 20 20" fill="none" xmlns="http://www.w3.org/2000/svg">
<path d="M19 0H13C12.7348 0 12.4804 0.105357 12.2929 0.292893C12.1054 0.48043 12 0.734784 12 1C12 1.26522 12.1054 1.51957 12.2929 1.70711C12.4804 1.89464 12.7348 2 13 2H18V7C18 7.26522 18.1054 7.51957 18.2929 7.70711C18.4804 7.89464 18.7348 8 19 8C19.2652 8 19.5196 7.89464 19.7071 7.70711C19.8946 7.51957 20 7.26522 20 7V1C20 0.734784 19.8946 0.48043 19.7071 0.292893C19.5196 0.105357 19.2652 0 19 0ZM19 12C18.7348 12 18.4804 12.1054 18.2929 12.2929C18.1054 12.4804 18 12.7348 18 13V18H13C12.7348 18 12.4804 18.1054 12.2929 18.2929C12.1054 18.4804 12 18.7348 12 19C12 19.2652 12.1054 19.5196 12.2929 19.7071C12.4804 19.8946 12.7348 20 13 20H19C19.2652 20 19.5196 19.8946 19.7071 19.7071C19.8946 19.5196 20 19.2652 20 19V13C20 12.7348 19.8946 12.4804 19.7071 12.2929C19.5196 12.1054 19.2652 12 19 12ZM10 4C9.20435 4 8.44129 4.31607 7.87868 4.87868C7.31607 5.44129 7 6.20435 7 7V8C6.46957 8 5.96086 8.21071 5.58579 8.58579C5.21071 8.96086 5 9.46957 5 10V14C5 14.5304 5.21071 15.0391 5.58579 15.4142C5.96086 15.7893 6.46957 16 7 16H13C13.5304 16 14.0391 15.7893 14.4142 15.4142C14.7893 15.0391 15 14.5304 15 14V10C15 9.46957 14.7893 8.96086 14.4142 8.58579C14.0391 8.21071 13.5304 8 13 8V7C13 6.20435 12.6839 5.44129 12.1213 4.87868C11.5587 4.31607 10.7956 4 10 4ZM9 7C9 6.73478 9.10536 6.48043 9.29289 6.29289C9.48043 6.10536 9.73478 6 10 6C10.2652 6 10.5196 6.10536 10.7071 6.29289C10.8946 6.48043 11 6.73478 11 7V8H9V7ZM13 14H7V10H13V14ZM1 8C1.26522 8 1.51957 7.89464 1.70711 7.70711C1.89464 7.51957 2 7.26522 2 7V2H7C7.26522 2 7.51957 1.89464 7.70711 1.70711C7.89464 1.51957 8 1.26522 8 1C8 0.734784 7.89464 0.48043 7.70711 0.292893C7.51957 0.105357 7.26522 0 7 0H1C0.734784 0 0.48043 0.105357 0.292893 0.292893C0.105357 0.48043 0 0.734784 0 1V7C0 7.26522 0.105357 7.51957 0.292893 7.70711C0.48043 7.89464 0.734784 8 1 8ZM7 18H2V13C2 12.7348 1.89464 12.4804 1.70711 12.2929C1.51957 12.1054 1.26522 12 1 12C0.734784 12 0.48043 12.1054 0.292893 12.2929C0.105357 12.4804 0 12.7348 0 13V19C0 19.2652 0.105357 19.5196 0.292893 19.7071C0.48043 19.8946 0.734784 20 1 20H7C7.26522 20 7.51957 19.8946 7.70711 19.7071C7.89464 19.5196 8 19.2652 8 19C8 18.7348 7.89464 18.4804 7.70711 18.2929C7.51957 18.1054 7.26522 18 7 18Z" fill="black"/>
</svg>
